<?xml version="1.0" encoding="UTF-8" standalone="no"?>
<!-- Created with Inkscape (http://www.inkscape.org/) -->

<svg
   version="1.1"
   id="svg2"
   width="207.40305"
   height="158.36571"
   viewBox="0 0 207.40305 158.36571"
   xmlns="http://www.w3.org/2000/svg"
   xmlns:svg="http://www.w3.org/2000/svg">
  <defs
     id="defs6">
    <clipPath
       clipPathUnits="userSpaceOnUse"
       id="clipPath18">
      <path
         d="M 0,226.771 H 297.638 V 0 H 0 Z"
         id="path16" />
    </clipPath>
  </defs>
  <g
     id="g10"
     transform="matrix(1.3333333,0,0,-1.3333333,-94.723594,230.3645)">
    <g
       id="g12">
      <g
         id="g14"
         clip-path="url(#clipPath18)">
        <g
           id="g20"
           transform="translate(82.8047,71.0801)">
          <path
             d="m 0,0 h -10.965 l -0.797,-3.859 h 8.908 c 0.593,0 0.891,-0.299 0.891,-0.893 v -11.664 h 4.82 v 13.255 c 0,1.09 -0.323,1.915 -0.959,2.465 C 1.368,-0.23 0.737,0 0,0"
             style="fill:#3f3e40;fill-opacity:1;fill-rule:nonzero;stroke:none"
             id="path22" />
        </g>
        <path
           d="m 71.546,54.664 h 4.851 v 9.441 h -4.851 z"
           style="fill:#3f3e40;fill-opacity:1;fill-rule:nonzero;stroke:none"
           id="path24" />
        <g
           id="g26"
           transform="translate(102.9541,69.2803)">
          <path
             d="m 0,0 c -0.466,0.528 -0.953,0.93 -1.46,1.2 -0.845,0.465 -1.92,0.698 -3.228,0.698 h -0.098 c -0.997,0 -1.946,-0.254 -2.856,-0.764 L -9.264,0.229 -10.207,1.8 h -5.107 V 1.395 l 1.719,-4.088 c 0.183,-0.399 0.241,-0.822 0.179,-1.267 l -1.362,-10.656 h 4.881 l 1.169,11.225 1.12,0.634 c 0.736,0.42 1.336,0.63 1.799,0.63 0.53,0 1.027,-0.145 1.494,-0.436 0.614,-0.413 0.945,-0.996 0.99,-1.751 l 0.209,-6.442 h -4.299 v -3.86 h 8.776 v 10.497 c 0,0.863 -0.155,1.761 -0.468,2.69 C 0.762,-1.004 0.463,-0.528 0,0"
             style="fill:#3f3e40;fill-opacity:1;fill-rule:nonzero;stroke:none"
             id="path28" />
        </g>
        <g
           id="g30"
           transform="translate(115.6064,71.0801)">
          <path
             d="m 0,0 h -9.507 l -0.797,-3.859 h 7.544 c 0.66,0 0.991,-0.319 0.991,-0.958 v -11.599 h 4.816 v 13.318 c 0,0.93 -0.384,1.732 -1.151,2.402 C 1.358,-0.23 0.724,0 0,0"
             style="fill:#3f3e40;fill-opacity:1;fill-rule:nonzero;stroke:none"
             id="path32" />
        </g>
        <g
           id="g34"
           transform="translate(134.0176,68.1113)">
          <path
             d="m 0,0 c 0,1.029 -0.296,1.808 -0.893,2.339 -0.484,0.421 -1.07,0.63 -1.749,0.63 h -9.379 l -0.728,-3.86 h 6.974 c 0.637,0 0.959,-0.298 0.959,-0.892 v -7.804 h -7.707 v -3.86 H 1.933 v 3.86 H 0 Z"
             style="fill:#3f3e40;fill-opacity:1;fill-rule:nonzero;stroke:none"
             id="path36" />
        </g>
        <path
           d="m 145.975,54.664 h 4.851 v 9.441 h -4.851 z"
           style="fill:#3f3e40;fill-opacity:1;fill-rule:nonzero;stroke:none"
           id="path38" />
        <g
           id="g40"
           transform="translate(157.2324,71.0801)">
          <path
             d="m 0,0 h -10.965 l -0.795,-3.859 h 8.904 c 0.597,0 0.896,-0.299 0.896,-0.893 v -11.664 h 4.817 v 13.255 c 0,1.09 -0.32,1.915 -0.959,2.465 C 1.367,-0.23 0.735,0 0,0"
             style="fill:#3f3e40;fill-opacity:1;fill-rule:nonzero;stroke:none"
             id="path42" />
        </g>
        <g
           id="g44"
           transform="translate(167.666,71.0801)">
          <path
             d="m 0,0 h -4.465 l -0.793,-3.859 h 2.595 c 0.258,0 0.39,-0.166 0.39,-0.503 v -5.11 h 4.56 v 7.073 C 2.287,-0.799 1.521,0 0,0"
             style="fill:#3f3e40;fill-opacity:1;fill-rule:nonzero;stroke:none"
             id="path46" />
        </g>
        <g
           id="g48"
           transform="translate(178.8096,71.0801)">
          <path
             d="m 0,0 h -5.225 l -0.826,-3.893 h 2.952 c 0.357,0 0.567,-0.168 0.63,-0.503 l 0.945,-4.88 -4.625,-3.119 0.633,-4.686 h 0.194 l 4.622,3.715 0.763,-3.05 H 4.541 L 1.687,-1.672 C 1.471,-0.556 0.91,0 0,0"
             style="fill:#3f3e40;fill-opacity:1;fill-rule:nonzero;stroke:none"
             id="path50" />
        </g>
        <g
           id="g52"
           transform="translate(192.9502,71.0801)">
          <path
             d="M 0,0 H -9.505 L -10.3,-3.859 h 7.544 c 0.659,0 0.989,-0.319 0.989,-0.958 v -11.599 h 4.82 v 13.318 c 0,0.93 -0.385,1.732 -1.154,2.402 C 1.359,-0.23 0.724,0 0,0"
             style="fill:#3f3e40;fill-opacity:1;fill-rule:nonzero;stroke:none"
             id="path54" />
        </g>
        <g
           id="g56"
           transform="translate(207.5195,68.2588)">
          <path
             d="M 0,0 C 0,0.994 -0.223,1.713 -0.664,2.155 -1.108,2.6 -1.719,2.821 -2.499,2.821 h -5.27 l -0.7,-3.859 h 3.049 c 0.488,0 0.732,-0.233 0.732,-0.697 l 0.162,-7.999 h -4.315 v -3.861 h 9.034 v 2.124 L 0,-6.393 Z"
             style="fill:#3f3e40;fill-opacity:1;fill-rule:nonzero;stroke:none"
             id="path58" />
        </g>
        <g
           id="g60"
           transform="translate(221.748,61.8037)"
           style="display:inline">
          <path
             d="M 0,0 1.427,0.972 C 2.226,1.5 2.725,2.166 2.919,2.967 l 1.56,6.309 H -0.098 L -1.235,4.558 C -1.516,3.67 -1.727,3.102 -1.866,2.852 L -6.51,9.276 h -5.251 V 9.067 L -7.983,3.552 -9.574,2.188 c -0.573,-0.485 -0.902,-1.094 -0.989,-1.817 l -0.911,-7.511 h 4.562 l 0.728,7.006 c 0.13,0.423 0.244,0.722 0.344,0.895 l 5.337,-7.901 h 5.35 v 0.259 z"
             style="fill:#3f3e40;fill-opacity:1;fill-rule:nonzero;stroke:none"
             id="path62" />
        </g>
        <g
           id="g64"
           transform="translate(181.8076,114.5337)"
           style="display:inline">
          <path
             d="m 0,0 -14.795,14.802 -4.151,4.144 -4.148,-4.144 -4.703,-4.709 -4.145,-4.144 -21.048,-21.051 c -1.699,1.185 -3.32,2.53 -4.837,4.044 -0.181,0.184 -0.364,0.37 -0.544,0.561 L -36.934,10.94 -32.79,15.083 -18.946,28.93 2.143,7.836 C 1.753,5.161 1.043,2.538 0,0 m -7.334,-10.992 -7.461,7.465 -4.151,4.142 -4.148,-4.142 -4.703,-4.708 -4.145,-4.147 -8.261,-8.26 c -2.579,0.553 -5.104,1.392 -7.524,2.52 l 19.93,19.926 4.146,4.145 4.705,4.71 16.101,-16.102 c -1.259,-1.951 -2.757,-3.808 -4.489,-5.549 m -25.387,-10.461 4.924,4.925 4.146,4.146 4.705,4.711 7.133,-7.131 c -6.211,-4.454 -13.562,-6.675 -20.908,-6.651 m -29.337,15.556 c -1.349,2.039 -2.423,4.162 -3.234,6.349 l 19.419,19.426 4.794,-4.795 z M 2.409,15.86 v 0.004 l -17.204,17.211 -4.151,4.143 -4.148,-4.143 -13.84,-13.846 -4.79,4.79 -4.149,4.148 -4.141,-4.148 L -66.978,7.06 -71.969,2.07 c 0.018,-0.055 0.03,-0.109 0.041,-0.163 V 1.905 h 0.006 V 1.9 1.896 1.894 1.887 1.874 l 0.002,-0.003 0.008,-0.013 0.019,-0.068 0.002,-0.013 V 1.771 c 0.023,-0.088 0.047,-0.186 0.078,-0.278 V 1.483 1.481 l 0.024,-0.089 0.006,-0.008 V 1.381 1.363 l 0.01,-0.01 V 1.334 l 0.005,-0.009 0.005,-0.015 0.007,-0.021 V 1.287 l 0.002,-0.009 0.007,-0.013 V 1.251 L -71.74,1.233 V 1.22 l 0.007,-0.014 0.006,-0.014 V 1.19 1.177 1.161 l 0.009,-0.013 0.007,-0.013 V 1.119 l 0.006,-0.014 v -0.01 l 0.008,-0.016 0.006,-0.017 0.004,-0.016 0.005,-0.014 V 1.017 l 0.008,-0.012 V 0.996 0.989 l 0.005,-0.013 V 0.96 l 0.024,-0.059 V 0.899 c 0.102,-0.357 0.211,-0.711 0.328,-1.064 l 0.01,-0.029 0.024,-0.055 v -0.013 l 0.006,-0.015 0.009,-0.035 0.006,-0.029 0.007,-0.002 0.017,-0.045 v -0.006 l 0.006,-0.027 0.02,-0.058 v -0.002 l 0.009,-0.028 0.009,-0.028 0.006,-0.014 0.004,-0.015 0.01,-0.027 0.009,-0.029 0.011,-0.025 0.002,-0.004 0.007,-0.03 0.011,-0.029 0.019,-0.056 0.011,-0.024 0.01,-0.036 0.007,-0.013 v -0.014 l 0.014,-0.022 v -0.007 -0.014 c 0.034,-0.069 0.055,-0.142 0.085,-0.214 v -0.014 h 0.002 l 0.005,-0.014 c 0.022,-0.066 0.043,-0.138 0.073,-0.203 l 0.015,-0.049 c 0.021,-0.062 0.043,-0.117 0.066,-0.174 l 0.036,-0.099 c 0.016,-0.047 0.037,-0.096 0.051,-0.141 l 0.031,-0.081 c 0.021,-0.052 0.041,-0.1 0.057,-0.145 l 0.048,-0.123 0.043,-0.101 c 0.018,-0.062 0.045,-0.128 0.07,-0.184 l 0.011,-0.029 c 1.087,-2.71 2.501,-5.32 4.277,-7.798 l 0.017,-0.033 c 0.043,-0.055 0.084,-0.11 0.122,-0.159 l 0.051,-0.079 c 0.036,-0.042 0.066,-0.084 0.101,-0.131 l 0.07,-0.097 c 0.029,-0.04 0.058,-0.079 0.089,-0.116 0.024,-0.036 0.05,-0.072 0.078,-0.103 0.027,-0.038 0.052,-0.075 0.081,-0.11 l 0.08,-0.105 0.075,-0.099 c 0.033,-0.049 0.071,-0.089 0.105,-0.143 l 0.058,-0.067 c 0.038,-0.047 0.071,-0.097 0.114,-0.143 l 0.057,-0.077 c 0.037,-0.044 0.076,-0.098 0.118,-0.145 l 0.042,-0.059 c 0.047,-0.052 0.088,-0.109 0.132,-0.162 l 0.036,-0.048 c 0.047,-0.053 0.089,-0.109 0.138,-0.165 l 0.039,-0.051 c 0.047,-0.056 0.098,-0.108 0.141,-0.166 l 0.029,-0.039 c 0.051,-0.055 0.1,-0.113 0.15,-0.169 l 0.031,-0.036 c 0.05,-0.065 0.101,-0.121 0.144,-0.175 l 0.033,-0.047 c 0.054,-0.053 0.105,-0.114 0.15,-0.17 l 0.029,-0.031 c 0.056,-0.056 0.108,-0.119 0.159,-0.174 l 0.027,-0.03 c 0.049,-0.065 0.109,-0.123 0.158,-0.188 l 0.016,-0.018 c 0.058,-0.06 0.117,-0.128 0.176,-0.186 l 0.015,-0.018 c 0.058,-0.066 0.115,-0.132 0.168,-0.194 l 0.018,-0.011 c 0.058,-0.065 0.118,-0.129 0.177,-0.191 l 0.017,-0.02 c 0.054,-0.064 0.123,-0.13 0.179,-0.187 l 0.012,-0.014 c 0.058,-0.058 0.114,-0.128 0.181,-0.19 l 0.016,-0.011 0.035,-0.043 c 0.185,-0.189 0.361,-0.377 0.549,-0.563 1.504,-1.508 3.104,-2.871 4.776,-4.098 l 0.021,-0.017 h 0.004 c 0.273,-0.209 0.559,-0.406 0.841,-0.605 0.289,-0.195 0.569,-0.389 0.856,-0.58 h 0.008 c 0.28,-0.192 0.571,-0.376 0.862,-0.553 v -0.006 c 0.823,-0.508 1.654,-0.99 2.503,-1.435 h 0.002 c 2.285,-1.206 4.657,-2.191 7.095,-2.941 v -0.004 c 2.215,-0.693 4.487,-1.189 6.784,-1.498 h 0.007 c 10.62,-1.43 21.709,1.214 30.634,7.944 0.388,0.293 0.773,0.593 1.158,0.901 v 0.005 c 0.221,0.181 0.441,0.361 0.656,0.544 h 0.007 c 0.214,0.189 0.433,0.376 0.646,0.564 0.217,0.193 0.433,0.382 0.643,0.578 h 0.007 c 0.203,0.194 0.414,0.396 0.624,0.593 l 0.008,0.006 c 0.206,0.202 0.41,0.397 0.617,0.602 l 0.064,0.067 h -0.002 c 1.722,1.728 3.243,3.557 4.568,5.473 1.171,1.686 2.189,3.429 3.06,5.234 1.148,2.359 2.032,4.806 2.675,7.306 h 0.002 c 0.6,2.336 0.985,4.717 1.166,7.124 H 8.3 Z"
             style="fill:#3f3e40;fill-opacity:1;fill-rule:nonzero;stroke:none"
             id="path66" />
        </g>
        <g
           id="g68"
           transform="translate(182.3008,139.5288)"
           style="display:inline">
          <path
             d="M 0,0 7.019,-7.018 V -7.02 L 7.85,-7.852 C 6.549,8.652 -4.492,22.42 -19.524,27.719 V 21.102 C -10.356,17.205 -3.188,9.512 0,0"
             style="fill:#3f3e40;fill-opacity:1;fill-rule:nonzero;stroke:none"
             id="path70" />
        </g>
        <g
           id="g72"
           transform="translate(114.0781,128.0552)"
           style="display:inline">
          <path
             d="m 0,0 c 0,0.109 -0.005,0.222 -0.005,0.333 0,14.625 8.972,27.155 21.707,32.397 0.023,-0.04 0.054,-0.079 0.073,-0.118 0.341,-0.623 0.778,-1.24 1.393,-1.842 1.52,-1.494 3.355,-2.154 5.063,-2.268 0.832,-0.056 1.681,0.016 2.513,0.024 0.567,0.008 1.124,-0.024 1.661,0 v -0.024 h 1.021 v 2.477 c 1.072,0.003 2.25,0.005 3.429,0.012 h 3.55 c 0.709,0 1.287,0.51 1.287,1.147 0,0.633 -0.578,1.145 -1.287,1.145 h -6.979 v 6.82 h 6.979 c 0.709,0 1.287,0.513 1.287,1.144 0,0.636 -0.578,1.149 -1.287,1.149 h -0.524 c -0.098,10e-4 -0.194,0.005 -0.291,0 h -6.164 v 2.316 H 32.405 C 31.81,44.736 31.19,44.683 30.567,44.674 28.05,44.647 25.408,44.698 23.007,42.231 22.477,41.688 22.087,41.119 21.775,40.558 21.521,40.09 21.321,39.626 21.167,39.177 21.162,39.163 21.16,39.144 21.153,39.125 5.227,33.433 -6.173,18.218 -6.173,0.333 c 0,-2.059 0.152,-4.084 0.444,-6.061 l 3.724,3.717 z"
             style="fill:#3f3e40;fill-opacity:1;fill-rule:nonzero;stroke:none"
             id="path74" />
        </g>
        <g
           id="g76"
           transform="translate(185.1387,129.4722)"
           style="display:inline">
          <path
             d="m 0,0 -18.13,18.132 0.004,0.005 -4.151,4.142 -4.148,-4.142 0.002,-0.002 -38.966,-38.971 3.687,-4.6 39.427,39.422 21.087,-21.089 z"
             style="fill:#f8a510;fill-opacity:1;fill-rule:nonzero;stroke:none"
             id="path78" />
        </g>
      </g>
    </g>
  </g>
</svg>
